<?xml version="1.0" encoding="UTF-8" standalone="no"?><!DOCTYPE svg PUBLIC "-//W3C//DTD SVG 1.1//EN" "http://www.w3.org/Graphics/SVG/1.1/DTD/svg11.dtd"><svg width="100%" height="100%" viewBox="0 0 146 58" version="1.1" xmlns="http://www.w3.org/2000/svg" xmlns:xlink="http://www.w3.org/1999/xlink" xml:space="preserve" xmlns:serif="http://www.serif.com/" style="fill-rule:evenodd;clip-rule:evenodd;stroke-linejoin:round;stroke-miterlimit:1.41421;"><path d="M17.452,22.882c-9.637,0 -17.452,7.815 -17.452,17.453c0,9.637 7.815,17.452 17.452,17.452c9.638,0 17.453,-7.815 17.453,-17.452c0,-9.638 -7.815,-17.453 -17.453,-17.453Zm4.133,13.208c-1.283,4.087 -2.573,8.182 -3.855,12.27c-0.135,0.42 -0.27,0.855 -0.308,1.29c-0.015,0.247 0.105,0.637 0.293,0.735c0.187,0.097 0.622,0.015 0.78,-0.15c0.637,-0.698 1.207,-1.455 1.8,-2.183c0.09,-0.112 0.18,-0.225 0.532,-0.352c0.03,0.232 0.165,0.525 0.075,0.682c-0.87,1.53 -1.875,2.955 -3.39,3.93c-1.065,0.683 -2.212,1.005 -3.465,0.593c-1.027,-0.338 -1.612,-1.133 -1.567,-2.213c0.022,-0.555 0.127,-1.117 0.292,-1.649c0.923,-2.963 1.875,-5.918 2.82,-8.873c0.075,-0.225 0.15,-0.45 0.218,-0.675c0.6,-2.077 0.352,-2.46 -1.905,-2.7c0.21,-0.262 0.345,-0.593 0.532,-0.622c2.415,-0.405 4.838,-0.773 7.448,-1.17c-0.142,0.494 -0.21,0.794 -0.3,1.087Zm-1.185,-4.028c-1.5,0.008 -2.76,-1.267 -2.753,-2.79c0.008,-1.53 1.26,-2.752 2.79,-2.73c1.493,0.023 2.708,1.238 2.723,2.723c0.023,1.5 -1.253,2.79 -2.76,2.797Z" style="fill:#FFFFFF;"/><path d="M145.027,22.335c-0.517,0.525 -1.147,0.78 -1.882,0.78c-0.735,0 -1.365,-0.263 -1.883,-0.78c-0.517,-0.518 -0.772,-1.148 -0.772,-1.89c0,-0.735 0.263,-1.358 0.78,-1.875c0.518,-0.518 1.14,-0.773 1.875,-0.773c0.735,0 1.365,0.255 1.883,0.773c0.517,0.517 0.78,1.14 0.78,1.875c-0.001,0.735 -0.263,1.365 -0.781,1.89Zm-3.502,-3.503c-0.443,0.45 -0.667,0.99 -0.667,1.62c0,0.638 0.217,1.178 0.659,1.628c0.443,0.45 0.983,0.675 1.62,0.675c0.638,0 1.178,-0.225 1.62,-0.675c0.443,-0.45 0.668,-0.99 0.668,-1.628c0,-0.63 -0.225,-1.17 -0.668,-1.62c-0.45,-0.45 -0.989,-0.675 -1.62,-0.675c-0.622,0 -1.162,0.225 -1.612,0.675Zm1.568,0.15c0.36,0 0.629,0.038 0.794,0.105c0.3,0.128 0.451,0.375 0.451,0.743c0,0.262 -0.098,0.45 -0.286,0.577c-0.097,0.068 -0.239,0.113 -0.42,0.143c0.225,0.037 0.398,0.135 0.503,0.285c0.105,0.157 0.157,0.307 0.157,0.45l0,0.21c0,0.067 0,0.142 0.008,0.217c0.007,0.075 0.015,0.128 0.022,0.15l0.015,0.038l-0.48,0c0,-0.008 -0.007,-0.023 -0.007,-0.03c0,-0.008 -0.007,-0.023 -0.007,-0.03l-0.008,-0.098l0,-0.232c0,-0.338 -0.09,-0.563 -0.278,-0.668c-0.104,-0.06 -0.3,-0.097 -0.57,-0.097l-0.405,0l0,1.147l-0.517,0l0,-2.917l1.028,0l0,0.007Zm0.554,0.458c-0.127,-0.075 -0.337,-0.105 -0.622,-0.105l-0.443,0l0,1.057l0.466,0c0.217,0 0.382,-0.022 0.487,-0.067c0.202,-0.082 0.3,-0.232 0.3,-0.457c0.008,-0.211 -0.06,-0.353 -0.188,-0.428Z" style="fill:#FFFFFF;fill-rule:nonzero;"/><path d="M105.735,32.632l-0.135,0c-2.55,-3.24 -5.73,-5.452 -10.073,-5.452c-6.69,0 -11.452,5.52 -11.452,12.007c0,6.42 4.418,12.008 11.175,12.008c4.62,0 7.868,-2.07 10.56,-5.588l0.135,0l0,7.38c-3.173,2.138 -6.42,3.315 -10.283,3.315c-9.794,0 -17.25,-7.312 -17.25,-17.115c0,-9.66 7.8,-17.107 17.318,-17.107c3.518,0 7.11,1.17 10.005,3.24l0,7.312Z" style="fill:#FFFFFF;fill-rule:nonzero;"/><path d="M114.81,40.357c0.067,6 4.342,10.83 10.627,10.83c4.695,0 7.725,-2.827 9.871,-6.69l4.695,2.693c-3.106,5.797 -8.348,9.105 -14.97,9.105c-9.66,0 -15.871,-7.38 -15.871,-16.695c0,-9.593 5.588,-17.528 15.728,-17.528c10.418,0 15.938,8.625 15.39,18.285l-25.47,0Zm19.665,-4.695c-0.757,-4.695 -4.688,-8.49 -9.525,-8.49c-4.762,0 -9.18,3.795 -9.87,8.49l19.395,0Z" style="fill:#FFFFFF;fill-rule:nonzero;"/><path d="M60.6,23.115l0,-9.338c0,-5.475 0,-8.505 4.59,-8.505c1.41,0 2.543,0.33 3.817,0.728l0,-5.34c-1.342,-0.398 -2.685,-0.66 -4.027,-0.66c-3.39,0 -6.713,1.118 -8.55,3.892c-1.485,2.243 -1.485,5.476 -1.485,8.048l0,11.19l-11.693,-0.007l0,-9.338c0,-5.475 0,-8.505 4.591,-8.505c1.409,0 2.542,0.33 3.817,0.728l0,-5.34c-1.343,-0.398 -2.685,-0.66 -4.028,-0.66c-3.39,0 -6.712,1.117 -8.55,3.892c-1.485,2.243 -1.485,5.475 -1.485,8.048l0,11.19l-6.135,0l0,4.665l6.135,0l0,27.48l5.648,0l0,-27.48l11.692,0l0,27.48l5.648,0l0,-27.48l7.86,0l0,27.48l5.527,0l0,-32.145l-13.372,-0.023Z" style="fill:#FFFFFF;fill-rule:nonzero;"/><path d="M67.575,14.407c0,1.92 1.56,3.428 3.427,3.428c1.868,0 3.428,-1.5 3.428,-3.428c0,-1.86 -1.56,-3.427 -3.428,-3.427c-1.867,0 -3.427,1.567 -3.427,3.427Z" style="fill:#FFFFFF;fill-rule:nonzero;"/></svg>